<?xml version="1.0" standalone="no"?><!DOCTYPE svg PUBLIC "-//W3C//DTD SVG 1.1//EN" "http://www.w3.org/Graphics/SVG/1.1/DTD/svg11.dtd"><svg t="1593526304928" class="icon" viewBox="0 0 1024 1024" version="1.1" xmlns="http://www.w3.org/2000/svg" p-id="1359" xmlns:xlink="http://www.w3.org/1999/xlink" width="200" height="200"><defs><style type="text/css"></style></defs><path d="M507.34 696.73c-108.47 0-196.7-88.23-196.7-196.69s88.23-196.69 196.7-196.69c108.44 0 196.68 88.23 196.68 196.69s-88.24 196.69-196.68 196.69z" fill="#FFCE54" p-id="1360"></path><path d="M507.34 285.51c-118.48 0-214.53 96.05-214.53 214.53s96.05 214.53 214.53 214.53 214.53-96.05 214.53-214.53-96.05-214.53-214.53-214.53z m126.45 340.98c-33.78 33.79-78.69 52.39-126.45 52.39-47.76 0-92.68-18.6-126.45-52.39-33.8-33.78-52.39-78.68-52.39-126.45 0-47.76 18.59-92.68 52.39-126.45 33.78-33.78 78.69-52.38 126.45-52.38 47.76 0 92.68 18.6 126.45 52.38 33.78 33.78 52.39 78.69 52.39 126.45 0 47.77-18.61 92.67-52.39 126.45zM239.63 482.19H132.55c-9.86 0-17.86 7.99-17.86 17.84s8 17.86 17.86 17.86h107.08c9.86 0 17.83-8 17.83-17.86s-7.97-17.84-17.83-17.84zM882.13 482.19H775.04c-9.86 0-17.86 7.99-17.86 17.84s8 17.84 17.86 17.84l107.08 0.01c9.86 0 17.83-8 17.83-17.86s-7.97-17.83-17.82-17.83z" fill="#F6BB42" p-id="1361"></path><path d="M759.72 222.41l-75.71 75.71c-6.98 6.97-6.98 18.27 0 25.24 6.96 6.97 18.27 6.97 25.23 0l75.74-75.71c6.96-6.97 6.96-18.27 0-25.24-6.98-6.97-18.28-6.97-25.26 0z" fill="#FFCE54" p-id="1362"></path><path d="M489.48 125.25v107.08c0 9.86 8 17.86 17.86 17.86s17.83-7.99 17.83-17.86V125.25c0-9.86-7.97-17.84-17.83-17.84s-17.86 7.98-17.86 17.84z" fill="#F6BB42" p-id="1363"></path><path d="M229.7 247.65l75.71 75.71c6.98 6.97 18.27 6.97 25.26 0 6.96-6.97 6.96-18.26 0-25.24l-75.71-75.71c-6.98-6.97-18.3-6.97-25.26 0-6.96 6.97-6.96 18.26 0 25.24z" fill="#FFCE54" p-id="1364"></path><path d="M854.67 611.9l-51.32-5.27-88.13-40.16-59.11 45.42-47.97 10.35-81.41-41.27-30.12-6.69-54.67 30.12-37.93 7.49-73.61-16.39-43.5-29.02s-16.47 30.12-29.44 33.46c-12.94 3.35-64.26 18.97-64.26 18.97l-36.81-7.01-77.38-38.73v337.35h856.66V573.17l-81 38.73z" fill="#4A89DC" p-id="1365"></path><path d="M79.01 725.84h0.13c5.26 0 8.76 1.42 9.91 2.17l47.69 31.79c13.7 9.14 31.27 14.17 49.49 14.17 18.22 0 35.79-5.03 49.49-14.17L283.4 728c1.15-0.74 4.65-2.17 9.91-2.17s8.76 1.42 9.91 2.17l47.69 31.79c13.7 9.14 31.27 14.17 49.49 14.17 18.22 0 35.82-5.03 49.51-14.17L497.56 728c1.15-0.74 4.65-2.17 9.91-2.17s8.78 1.42 9.91 2.17l47.69 31.79c13.7 9.14 31.27 14.17 49.49 14.17 18.22 0 35.79-5.03 49.49-14.17L711.72 728c1.15-0.74 4.65-2.17 9.91-2.17s8.78 1.42 9.91 2.17l47.69 31.79c13.7 9.14 31.27 14.17 49.49 14.17 18.22 0 35.79-5.03 49.51-14.17L925.89 728c1.12-0.74 4.6-2.14 9.78-2.17v-35.69c-10.72 0.02-21.44 2.74-29.57 8.16l-47.68 31.79c-8.16 5.45-18.93 8.17-29.7 8.17s-21.54-2.72-29.7-8.17l-47.68-31.79c-8.16-5.44-18.93-8.17-29.7-8.17s-21.54 2.73-29.7 8.17l-47.68 31.79c-8.16 5.45-18.93 8.17-29.7 8.17s-21.52-2.72-29.7-8.17l-47.68-31.79c-8.16-5.44-18.93-8.17-29.7-8.17s-21.52 2.73-29.7 8.17l-47.68 31.79c-8.16 5.45-18.93 8.17-29.7 8.17s-21.52-2.72-29.7-8.17L323 698.31c-8.16-5.44-18.93-8.17-29.7-8.17-10.75 0-21.52 2.73-29.7 8.17l-47.68 31.79c-8.16 5.45-18.93 8.17-29.7 8.17-10.75 0-21.52-2.72-29.7-8.17l-47.68-31.79c-8.16-5.44-18.93-8.17-29.7-8.17-0.03 0-0.08 0.01-0.13 0.01v35.69zM79.01 589.28h0.13c5.26 0 8.76 1.42 9.91 2.17l47.69 31.79c13.7 9.14 31.27 14.17 49.49 14.17 18.22 0 35.79-5.03 49.49-14.17l47.69-31.79c1.15-0.75 4.65-2.17 9.91-2.17s8.76 1.42 9.91 2.17l47.69 31.79c13.7 9.14 31.27 14.17 49.49 14.17 18.22 0 35.82-5.03 49.51-14.17l47.66-31.79c1.15-0.75 4.65-2.17 9.91-2.17s8.78 1.42 9.91 2.17l47.69 31.79c13.7 9.14 31.27 14.17 49.49 14.17 18.22 0 35.79-5.03 49.49-14.17l47.69-31.79c1.15-0.75 4.65-2.17 9.91-2.17s8.78 1.42 9.91 2.17l47.69 31.79c13.7 9.14 31.27 14.17 49.49 14.17 18.22 0 35.79-5.03 49.51-14.17l47.66-31.79c1.12-0.75 4.6-2.14 9.78-2.17v-35.69c-10.72 0.01-21.44 2.73-29.57 8.16l-47.68 31.79c-8.16 5.45-18.93 8.17-29.7 8.17s-21.54-2.72-29.7-8.17l-47.68-31.79c-8.16-5.44-18.93-8.17-29.7-8.17s-21.54 2.73-29.7 8.17l-47.68 31.79c-8.16 5.45-18.93 8.17-29.7 8.17s-21.52-2.72-29.7-8.17l-47.68-31.79c-8.16-5.44-18.93-8.17-29.7-8.17s-21.52 2.73-29.7 8.17l-47.68 31.79c-8.16 5.45-18.93 8.17-29.7 8.17s-21.52-2.72-29.7-8.17L323 561.75c-8.16-5.44-18.93-8.17-29.7-8.17-10.75 0-21.52 2.73-29.7 8.17l-47.68 31.79c-8.16 5.45-18.93 8.17-29.7 8.17-10.75 0-21.52-2.72-29.7-8.17l-47.68-31.79c-8.16-5.44-18.93-8.17-29.7-8.17-0.03 0-0.08 0.01-0.13 0.01v35.69zM79.01 862.41c0.05 0 0.08-0.01 0.13-0.01 5.26 0 8.76 1.42 9.91 2.17l47.69 31.79c13.7 9.14 31.27 14.17 49.49 14.17 18.22 0 35.79-5.03 49.49-14.17l47.69-31.79c1.15-0.74 4.65-2.17 9.91-2.17s8.76 1.42 9.91 2.17l47.69 31.79c13.7 9.14 31.27 14.17 49.49 14.17 18.22 0 35.79-5.03 49.49-14.17l47.69-31.79c1.12-0.74 4.65-2.17 9.91-2.17s8.78 1.42 9.91 2.17l47.69 31.79c13.7 9.14 31.27 14.17 49.49 14.17 18.22 0 35.79-5.03 49.49-14.17l47.69-31.79c1.12-0.74 4.65-2.17 9.91-2.17s8.78 1.42 9.91 2.17l47.69 31.79c13.7 9.14 31.27 14.17 49.49 14.17 18.22 0 35.79-5.03 49.49-14.17l47.69-31.79c1.12-0.73 4.6-2.13 9.78-2.16v-35.7c-10.72 0.03-21.44 2.75-29.57 8.16l-47.68 31.79c-8.16 5.45-18.93 8.17-29.7 8.17s-21.54-2.72-29.7-8.17l-47.68-31.79c-8.16-5.44-18.93-8.16-29.7-8.16s-21.54 2.72-29.7 8.16l-47.68 31.79c-8.16 5.45-18.93 8.17-29.7 8.17s-21.54-2.72-29.7-8.17l-47.68-31.79c-8.16-5.44-18.93-8.16-29.7-8.16s-21.54 2.72-29.7 8.16l-47.68 31.79c-8.16 5.45-18.93 8.17-29.7 8.17s-21.54-2.72-29.7-8.17L323 834.86c-8.18-5.44-18.93-8.16-29.7-8.16-10.75 0-21.52 2.72-29.7 8.16l-47.68 31.79c-8.18 5.45-18.93 8.17-29.7 8.17-10.75 0-21.52-2.72-29.7-8.17l-47.68-31.79c-8.18-5.44-18.93-8.16-29.7-8.16h-0.13v35.71z" fill="#5D9CEC" p-id="1366"></path></svg>