<?xml version="1.0" standalone="no"?><!DOCTYPE svg PUBLIC "-//W3C//DTD SVG 1.1//EN" "http://www.w3.org/Graphics/SVG/1.1/DTD/svg11.dtd"><svg t="1593521515748" class="icon" viewBox="0 0 1024 1024" version="1.1" xmlns="http://www.w3.org/2000/svg" p-id="1353" xmlns:xlink="http://www.w3.org/1999/xlink" width="200" height="200"><defs><style type="text/css"></style></defs><path d="M588.1856 627.5072a8.704 8.704 0 0 0-6.3488-2.6624 138.8544 138.8544 0 0 0-44.8512 6.9632 131.2768 131.2768 0 0 0-36.5568 18.944 234.9056 234.9056 0 0 0-33.1776 30.72 9.3184 9.3184 0 0 0-2.6624 6.3488 9.1136 9.1136 0 0 0 9.0112 9.0112 9.3184 9.3184 0 0 0 6.3488-2.6624q3.7888-3.3792 10.24-10.24l9.4208-9.3184a127.2832 127.2832 0 0 1 37.888-24.7808 120.2176 120.2176 0 0 1 44.2368-7.3728 9.1136 9.1136 0 0 0 9.0112-9.0112 8.704 8.704 0 0 0-2.56-5.9392z" fill="#01C700" p-id="1354"></path><path d="M796.7744 394.1376a41.5744 41.5744 0 0 0 0-7.2704v-106.496a47.7184 47.7184 0 0 0-95.1296 0v36.4544l-122.88-100.2496a65.7408 65.7408 0 0 0-88.4736 0l-139.5712 112.64a237.9776 237.9776 0 0 1-83.2512 363.2128v78.6432c0 53.248 36.352 86.528 90.624 86.528h351.8464c49.0496 0 89.2928-25.4976 90.624-86.528V581.7344l89.3952-31.9488a51.2 51.2 0 0 0 0-78.9504zM663.04 606.0032a135.8848 135.8848 0 0 1-2.8672 27.2384 116.1216 116.1216 0 0 1-26.0096 53.9648A160.5632 160.5632 0 0 1 583.68 724.992a135.5776 135.5776 0 0 1-61.44 15.2576 124.1088 124.1088 0 0 1-40.96-6.656q-2.1504-0.7168-12.3904-5.9392a41.6768 41.6768 0 0 0-13.5168-5.2224q-2.2528 0-5.5296 4.5056a99.6352 99.6352 0 0 0-6.3488 10.24 48.3328 48.3328 0 0 1-7.3728 10.24 12.288 12.288 0 0 1-8.4992 4.5056 15.2576 15.2576 0 0 1-7.168-1.536 13.2096 13.2096 0 0 1-4.4032-3.3792 60.1088 60.1088 0 0 1-3.7888-5.9392l-0.8192-1.536-0.4096-2.2528a6.9632 6.9632 0 0 1 0-1.3312 8.0896 8.0896 0 0 1 0-1.9456 16.7936 16.7936 0 0 1 4.4032-10.24 51.2 51.2 0 0 1 9.6256-9.216 104.0384 104.0384 0 0 0 9.6256-7.8848q4.4032-4.096 4.4032-6.7584a34.5088 34.5088 0 0 0-1.9456-5.3248 47.4112 47.4112 0 0 1-2.2528-6.2464 84.6848 84.6848 0 0 1-1.2288-14.6432 80.2816 80.2816 0 0 1 6.144-30.72 83.8656 83.8656 0 0 1 16.7936-26.0096 122.88 122.88 0 0 1 24.064-19.5584A131.7888 131.7888 0 0 1 508.5184 583.68a92.16 92.16 0 0 1 20.48-3.584q12.6976-1.024 25.2928-1.2288t25.1904-0.8192a114.5856 114.5856 0 0 0 23.04-3.3792 36.0448 36.0448 0 0 0 15.9744-7.9872l4.1984-4.1984 4.1984-3.9936q4.1984-3.9936 3.7888-2.8672t5.12-2.2528q5.5296-3.3792 6.144-0.6144a12.3904 12.3904 0 0 1 10.24 6.4512 47.3088 47.3088 0 0 1 6.656 15.7696q2.2528 9.3184 3.3792 17.5104a100.864 100.864 0 0 1 1.1264 13.5168z" fill="#01C700" p-id="1355"></path><path d="M403.1488 477.3888a236.8512 236.8512 0 0 0-52.1216-148.48L183.5008 463.872a51.2 51.2 0 0 0 0 78.848l84.3776 30.72v118.6816a237.9776 237.9776 0 0 0 135.2704-214.7328z" fill="#01C700" p-id="1356"></path><path d="M403.1488 477.3888a236.8512 236.8512 0 0 0-52.1216-148.48L183.5008 463.872a51.2 51.2 0 0 0 0 78.848l84.3776 30.72v118.6816a237.9776 237.9776 0 0 0 135.2704-214.7328z" fill="#3DD240" p-id="1357"></path></svg>